<mxfile host="Electron" modified="2023-04-27T03:34:21.251Z" agent="Mozilla/5.0 (Macintosh; Intel Mac OS X 10_15_7) AppleWebKit/537.36 (KHTML, like Gecko) draw.io/21.2.1 Chrome/112.0.5615.87 Electron/24.1.2 Safari/537.36" etag="qcje3as0dlkvTSKMM9RW" version="21.2.1" type="device">
  <diagram name="第 1 页" id="gjy6ED2kdmKgzrkpVJt7">
    <mxGraphModel dx="893" dy="765" grid="0" gridSize="10" guides="1" tooltips="1" connect="1" arrows="1" fold="1" page="1" pageScale="1" pageWidth="827" pageHeight="1169" math="0" shadow="0">
      <root>
        <mxCell id="0" />
        <mxCell id="1" parent="0" />
        <mxCell id="fSjIj0jOedOcCplaxwQq-7" value="" style="edgeStyle=orthogonalEdgeStyle;rounded=0;orthogonalLoop=1;jettySize=auto;html=1;" edge="1" parent="1" source="fSjIj0jOedOcCplaxwQq-1" target="fSjIj0jOedOcCplaxwQq-6">
          <mxGeometry relative="1" as="geometry" />
        </mxCell>
        <mxCell id="fSjIj0jOedOcCplaxwQq-1" value="k8s" style="ellipse;whiteSpace=wrap;html=1;fillColor=#008a00;fontColor=#ffffff;strokeColor=#005700;" vertex="1" parent="1">
          <mxGeometry x="360" y="20" width="110" height="80" as="geometry" />
        </mxCell>
        <mxCell id="fSjIj0jOedOcCplaxwQq-22" style="edgeStyle=orthogonalEdgeStyle;rounded=0;orthogonalLoop=1;jettySize=auto;html=1;entryX=0;entryY=0.5;entryDx=0;entryDy=0;" edge="1" parent="1" source="fSjIj0jOedOcCplaxwQq-2" target="fSjIj0jOedOcCplaxwQq-17">
          <mxGeometry relative="1" as="geometry">
            <Array as="points">
              <mxPoint x="245" y="400" />
            </Array>
          </mxGeometry>
        </mxCell>
        <mxCell id="fSjIj0jOedOcCplaxwQq-2" value="iSula" style="rounded=1;whiteSpace=wrap;html=1;fillColor=#dae8fc;strokeColor=#6c8ebf;" vertex="1" parent="1">
          <mxGeometry x="200" y="265" width="90" height="50" as="geometry" />
        </mxCell>
        <mxCell id="fSjIj0jOedOcCplaxwQq-23" style="edgeStyle=orthogonalEdgeStyle;rounded=0;orthogonalLoop=1;jettySize=auto;html=1;" edge="1" parent="1" source="fSjIj0jOedOcCplaxwQq-3" target="fSjIj0jOedOcCplaxwQq-17">
          <mxGeometry relative="1" as="geometry" />
        </mxCell>
        <mxCell id="fSjIj0jOedOcCplaxwQq-3" value="Containerd" style="rounded=1;whiteSpace=wrap;html=1;fillColor=#dae8fc;strokeColor=#6c8ebf;" vertex="1" parent="1">
          <mxGeometry x="370" y="265" width="90" height="50" as="geometry" />
        </mxCell>
        <mxCell id="fSjIj0jOedOcCplaxwQq-24" style="edgeStyle=orthogonalEdgeStyle;rounded=0;orthogonalLoop=1;jettySize=auto;html=1;entryX=1;entryY=0.5;entryDx=0;entryDy=0;" edge="1" parent="1" source="fSjIj0jOedOcCplaxwQq-5" target="fSjIj0jOedOcCplaxwQq-17">
          <mxGeometry relative="1" as="geometry">
            <Array as="points">
              <mxPoint x="585" y="400" />
            </Array>
          </mxGeometry>
        </mxCell>
        <mxCell id="fSjIj0jOedOcCplaxwQq-5" value="CRI-O" style="rounded=1;whiteSpace=wrap;html=1;fillColor=#dae8fc;strokeColor=#6c8ebf;" vertex="1" parent="1">
          <mxGeometry x="540" y="265" width="90" height="45" as="geometry" />
        </mxCell>
        <mxCell id="fSjIj0jOedOcCplaxwQq-8" value="" style="edgeStyle=orthogonalEdgeStyle;rounded=0;orthogonalLoop=1;jettySize=auto;html=1;" edge="1" parent="1" source="fSjIj0jOedOcCplaxwQq-6" target="fSjIj0jOedOcCplaxwQq-3">
          <mxGeometry relative="1" as="geometry" />
        </mxCell>
        <mxCell id="fSjIj0jOedOcCplaxwQq-15" value="implements" style="edgeLabel;html=1;align=center;verticalAlign=middle;resizable=0;points=[];" vertex="1" connectable="0" parent="fSjIj0jOedOcCplaxwQq-8">
          <mxGeometry x="-0.3882" relative="1" as="geometry">
            <mxPoint y="14" as="offset" />
          </mxGeometry>
        </mxCell>
        <mxCell id="fSjIj0jOedOcCplaxwQq-10" style="edgeStyle=orthogonalEdgeStyle;rounded=0;orthogonalLoop=1;jettySize=auto;html=1;entryX=0.5;entryY=0;entryDx=0;entryDy=0;" edge="1" parent="1" source="fSjIj0jOedOcCplaxwQq-6" target="fSjIj0jOedOcCplaxwQq-5">
          <mxGeometry relative="1" as="geometry" />
        </mxCell>
        <mxCell id="fSjIj0jOedOcCplaxwQq-16" value="implements" style="edgeLabel;html=1;align=center;verticalAlign=middle;resizable=0;points=[];" vertex="1" connectable="0" parent="fSjIj0jOedOcCplaxwQq-10">
          <mxGeometry x="0.575" y="1" relative="1" as="geometry">
            <mxPoint x="-1" y="6" as="offset" />
          </mxGeometry>
        </mxCell>
        <mxCell id="fSjIj0jOedOcCplaxwQq-11" style="edgeStyle=orthogonalEdgeStyle;rounded=0;orthogonalLoop=1;jettySize=auto;html=1;exitX=0;exitY=0.25;exitDx=0;exitDy=0;" edge="1" parent="1" source="fSjIj0jOedOcCplaxwQq-6">
          <mxGeometry relative="1" as="geometry">
            <mxPoint x="240" y="260" as="targetPoint" />
            <Array as="points">
              <mxPoint x="385" y="165" />
              <mxPoint x="240" y="165" />
            </Array>
          </mxGeometry>
        </mxCell>
        <mxCell id="fSjIj0jOedOcCplaxwQq-12" value="implements" style="edgeLabel;html=1;align=center;verticalAlign=middle;resizable=0;points=[];" vertex="1" connectable="0" parent="fSjIj0jOedOcCplaxwQq-11">
          <mxGeometry x="0.4263" y="-3" relative="1" as="geometry">
            <mxPoint y="31" as="offset" />
          </mxGeometry>
        </mxCell>
        <mxCell id="fSjIj0jOedOcCplaxwQq-6" value="CRI" style="rounded=1;whiteSpace=wrap;html=1;fillColor=#f8cecc;strokeColor=#b85450;" vertex="1" parent="1">
          <mxGeometry x="385" y="150" width="60" height="30" as="geometry" />
        </mxCell>
        <mxCell id="fSjIj0jOedOcCplaxwQq-29" style="edgeStyle=orthogonalEdgeStyle;rounded=0;orthogonalLoop=1;jettySize=auto;html=1;exitX=0.5;exitY=1;exitDx=0;exitDy=0;entryX=0.5;entryY=0;entryDx=0;entryDy=0;" edge="1" parent="1" source="fSjIj0jOedOcCplaxwQq-17" target="fSjIj0jOedOcCplaxwQq-26">
          <mxGeometry relative="1" as="geometry">
            <Array as="points">
              <mxPoint x="400" y="420" />
              <mxPoint x="400" y="460" />
              <mxPoint x="290" y="460" />
            </Array>
          </mxGeometry>
        </mxCell>
        <mxCell id="fSjIj0jOedOcCplaxwQq-30" style="edgeStyle=orthogonalEdgeStyle;rounded=0;orthogonalLoop=1;jettySize=auto;html=1;entryX=0.5;entryY=0;entryDx=0;entryDy=0;" edge="1" parent="1" source="fSjIj0jOedOcCplaxwQq-17" target="fSjIj0jOedOcCplaxwQq-27">
          <mxGeometry relative="1" as="geometry" />
        </mxCell>
        <mxCell id="fSjIj0jOedOcCplaxwQq-34" style="edgeStyle=orthogonalEdgeStyle;rounded=0;orthogonalLoop=1;jettySize=auto;html=1;exitX=0.75;exitY=1;exitDx=0;exitDy=0;entryX=0.5;entryY=0;entryDx=0;entryDy=0;" edge="1" parent="1" source="fSjIj0jOedOcCplaxwQq-17" target="fSjIj0jOedOcCplaxwQq-33">
          <mxGeometry relative="1" as="geometry">
            <Array as="points">
              <mxPoint x="434" y="460" />
              <mxPoint x="585" y="460" />
            </Array>
          </mxGeometry>
        </mxCell>
        <mxCell id="fSjIj0jOedOcCplaxwQq-17" value="OCI" style="rounded=1;whiteSpace=wrap;html=1;fillColor=#d5e8d4;strokeColor=#82b366;" vertex="1" parent="1">
          <mxGeometry x="377.5" y="380" width="75" height="40" as="geometry" />
        </mxCell>
        <mxCell id="fSjIj0jOedOcCplaxwQq-26" value="runc" style="rounded=1;whiteSpace=wrap;html=1;fillColor=#ffe6cc;strokeColor=#d79b00;" vertex="1" parent="1">
          <mxGeometry x="250" y="510" width="80" height="40" as="geometry" />
        </mxCell>
        <mxCell id="fSjIj0jOedOcCplaxwQq-37" style="edgeStyle=orthogonalEdgeStyle;rounded=0;orthogonalLoop=1;jettySize=auto;html=1;" edge="1" parent="1" source="fSjIj0jOedOcCplaxwQq-27" target="fSjIj0jOedOcCplaxwQq-32">
          <mxGeometry relative="1" as="geometry">
            <Array as="points">
              <mxPoint x="400" y="590" />
              <mxPoint x="275" y="590" />
            </Array>
          </mxGeometry>
        </mxCell>
        <mxCell id="fSjIj0jOedOcCplaxwQq-41" style="edgeStyle=orthogonalEdgeStyle;rounded=0;orthogonalLoop=1;jettySize=auto;html=1;entryX=0.5;entryY=0;entryDx=0;entryDy=0;" edge="1" parent="1" source="fSjIj0jOedOcCplaxwQq-27" target="fSjIj0jOedOcCplaxwQq-40">
          <mxGeometry relative="1" as="geometry" />
        </mxCell>
        <mxCell id="fSjIj0jOedOcCplaxwQq-45" style="edgeStyle=orthogonalEdgeStyle;rounded=0;orthogonalLoop=1;jettySize=auto;html=1;exitX=0.75;exitY=1;exitDx=0;exitDy=0;entryX=0.5;entryY=0;entryDx=0;entryDy=0;" edge="1" parent="1" source="fSjIj0jOedOcCplaxwQq-27" target="fSjIj0jOedOcCplaxwQq-42">
          <mxGeometry relative="1" as="geometry">
            <Array as="points">
              <mxPoint x="436" y="590" />
              <mxPoint x="540" y="590" />
            </Array>
          </mxGeometry>
        </mxCell>
        <mxCell id="fSjIj0jOedOcCplaxwQq-47" style="edgeStyle=orthogonalEdgeStyle;rounded=0;orthogonalLoop=1;jettySize=auto;html=1;entryX=0.5;entryY=0;entryDx=0;entryDy=0;" edge="1" parent="1" source="fSjIj0jOedOcCplaxwQq-27" target="fSjIj0jOedOcCplaxwQq-44">
          <mxGeometry relative="1" as="geometry">
            <mxPoint x="640" y="580" as="targetPoint" />
            <Array as="points">
              <mxPoint x="450" y="570" />
              <mxPoint x="640" y="570" />
            </Array>
          </mxGeometry>
        </mxCell>
        <mxCell id="fSjIj0jOedOcCplaxwQq-27" value="kata-runtime" style="rounded=1;whiteSpace=wrap;html=1;fillColor=#ffe6cc;strokeColor=#d79b00;" vertex="1" parent="1">
          <mxGeometry x="374" y="510" width="82" height="40" as="geometry" />
        </mxCell>
        <mxCell id="fSjIj0jOedOcCplaxwQq-32" value="qemu" style="rounded=1;whiteSpace=wrap;html=1;fillColor=#fff2cc;strokeColor=#d6b656;" vertex="1" parent="1">
          <mxGeometry x="240" y="760" width="70" height="40" as="geometry" />
        </mxCell>
        <mxCell id="fSjIj0jOedOcCplaxwQq-33" value="gVisor" style="rounded=1;whiteSpace=wrap;html=1;fillColor=#ffe6cc;strokeColor=#d79b00;" vertex="1" parent="1">
          <mxGeometry x="550" y="510" width="70" height="40" as="geometry" />
        </mxCell>
        <mxCell id="fSjIj0jOedOcCplaxwQq-35" value="" style="endArrow=none;dashed=1;html=1;dashPattern=1 3;strokeWidth=2;rounded=0;" edge="1" parent="1">
          <mxGeometry width="50" height="50" relative="1" as="geometry">
            <mxPoint x="620" y="520" as="sourcePoint" />
            <mxPoint x="670" y="470" as="targetPoint" />
          </mxGeometry>
        </mxCell>
        <mxCell id="fSjIj0jOedOcCplaxwQq-36" value="kata-containers&lt;br&gt;有性能比对" style="rounded=1;whiteSpace=wrap;html=1;fillColor=#e1d5e7;strokeColor=#9673a6;" vertex="1" parent="1">
          <mxGeometry x="670" y="400" width="120" height="60" as="geometry" />
        </mxCell>
        <mxCell id="fSjIj0jOedOcCplaxwQq-38" value="" style="endArrow=none;dashed=1;html=1;dashPattern=1 3;strokeWidth=2;rounded=0;exitX=0;exitY=0.5;exitDx=0;exitDy=0;" edge="1" parent="1" source="fSjIj0jOedOcCplaxwQq-32">
          <mxGeometry width="50" height="50" relative="1" as="geometry">
            <mxPoint x="390" y="440" as="sourcePoint" />
            <mxPoint x="170" y="590" as="targetPoint" />
          </mxGeometry>
        </mxCell>
        <mxCell id="fSjIj0jOedOcCplaxwQq-39" value="阿里云和StratoVirt&lt;br&gt;有性能比对" style="rounded=1;whiteSpace=wrap;html=1;fillColor=#e1d5e7;strokeColor=#9673a6;" vertex="1" parent="1">
          <mxGeometry x="40" y="540" width="120" height="60" as="geometry" />
        </mxCell>
        <mxCell id="fSjIj0jOedOcCplaxwQq-40" value="firecraker" style="rounded=1;whiteSpace=wrap;html=1;fillColor=#fff2cc;strokeColor=#d6b656;" vertex="1" parent="1">
          <mxGeometry x="380" y="760" width="70" height="40" as="geometry" />
        </mxCell>
        <mxCell id="fSjIj0jOedOcCplaxwQq-42" value="StratoVirt" style="rounded=1;whiteSpace=wrap;html=1;fillColor=#fff2cc;strokeColor=#d6b656;" vertex="1" parent="1">
          <mxGeometry x="500" y="760" width="80" height="40" as="geometry" />
        </mxCell>
        <mxCell id="fSjIj0jOedOcCplaxwQq-50" style="edgeStyle=orthogonalEdgeStyle;rounded=0;orthogonalLoop=1;jettySize=auto;html=1;entryX=1;entryY=0.5;entryDx=0;entryDy=0;" edge="1" parent="1" source="fSjIj0jOedOcCplaxwQq-44" target="fSjIj0jOedOcCplaxwQq-42">
          <mxGeometry relative="1" as="geometry">
            <Array as="points">
              <mxPoint x="640" y="780" />
            </Array>
          </mxGeometry>
        </mxCell>
        <mxCell id="fSjIj0jOedOcCplaxwQq-44" value="libvirt" style="ellipse;whiteSpace=wrap;html=1;fillColor=#f8cecc;strokeColor=#b85450;" vertex="1" parent="1">
          <mxGeometry x="610" y="630" width="60" height="30" as="geometry" />
        </mxCell>
        <mxCell id="fSjIj0jOedOcCplaxwQq-51" value="" style="rounded=1;whiteSpace=wrap;html=1;fillColor=none;" vertex="1" parent="1">
          <mxGeometry x="170" y="740" width="550" height="80" as="geometry" />
        </mxCell>
        <mxCell id="fSjIj0jOedOcCplaxwQq-53" value="" style="endArrow=none;dashed=1;html=1;dashPattern=1 3;strokeWidth=2;rounded=0;" edge="1" parent="1">
          <mxGeometry width="50" height="50" relative="1" as="geometry">
            <mxPoint x="670" y="640" as="sourcePoint" />
            <mxPoint x="720" y="590" as="targetPoint" />
          </mxGeometry>
        </mxCell>
        <mxCell id="fSjIj0jOedOcCplaxwQq-54" value="方便地对大规模的 StratoVirt 虚拟机进行部署、编排和管理" style="rounded=1;whiteSpace=wrap;html=1;fillColor=#f5f5f5;fontColor=#333333;strokeColor=#666666;" vertex="1" parent="1">
          <mxGeometry x="690" y="530" width="120" height="55" as="geometry" />
        </mxCell>
      </root>
    </mxGraphModel>
  </diagram>
</mxfile>
